<?xml version="1.0" encoding="UTF-8"?>
<svg version="1.1" viewBox="0 0 258.25 272.93" xmlns="http://www.w3.org/2000/svg" xmlns:cc="http://creativecommons.org/ns#" xmlns:dc="http://purl.org/dc/elements/1.1/" xmlns:rdf="http://www.w3.org/1999/02/22-rdf-syntax-ns#">
<metadata>
<rdf:RDF>
<cc:Work rdf:about="">
<dc:format>image/svg+xml</dc:format>
<dc:type rdf:resource="http://purl.org/dc/dcmitype/StillImage"/>
<dc:title/>
</cc:Work>
</rdf:RDF>
</metadata>
<path fill="white" d="m102.43 272.08c0-2.3607 1.597-4.2943 6.8357-8.2763 3.1154-2.368 6.3393-5.1912 7.1643-6.2737 1.8583-2.4383 4.1284-8.515 3.538-9.4703-0.2405-0.38915 0.0115-3.8247 0.56011-7.6345 1.359-9.4384 0.60646-12.986-3.0233-14.251-2.4592-0.85726-3.1577-0.66586-4.9054 1.3442-2.31 2.6567-4.0441 7.8785-4.8088 14.48-0.68341 5.9001-4.6165 12.417-11.126 18.435-5.5057 5.0899-8.0586 5.5236-4.5458 0.77222 3.4636-4.6848 6.3112-10.987 6.3112-13.967 0-1.5619 0.5625-3.4023 1.25-4.0898 0.82568-0.82563 1.3094-5.0095 1.4251-12.325 0.17749-11.225-0.43037-12.46-2.6768-5.4389-0.68379 2.1373-2.3132 5.4626-3.6208 7.3896-1.3077 1.9269-2.3801 4.0032-2.3831 4.614-0.0167 3.3236-2.2568 8.6104-3.6484 8.6104-1.0942 0-1.3443-0.52255-0.83775-1.75 0.39724-0.9625 1.083-3.1 1.524-4.75 1.6753-6.2686 2.88-9.5785 4.8147-13.229 2.2284-4.2046 3.5389-11.271 2.0902-11.271-0.51542 0-0.93713 0.46042-0.93713 1.0232 0 1.2696-6.7159 12.193-9.7184 15.807-3.337 4.0165-2.7252 1.2891 1.1572-5.1583 4.0032-6.648 5.1376-9.6716 3.6286-9.6716-0.58707 0-1.0674 0.39323-1.0674 0.87384s-2.3625 3.57-5.25 6.8652-7.4118 8.8646-10.054 12.376c-9.7686 12.983-12.116 15.743-12.951 15.227-0.46976-0.29033-0.18739-1.5454 0.62749-2.7891s1.7941-4.0145 2.176-6.1574c0.38193-2.1429 1.5397-5.2993 2.5727-7.0142 1.0331-1.7149 1.8783-3.7466 1.8783-4.5148 0-0.76823 0.95673-3.1818 2.1261-5.3636 1.1693-2.1817 2.7277-5.672 3.4631-7.7562 0.73534-2.0842 1.9594-5.2425 2.7202-7.0184 3.4088-7.9575 4.5763-13.729 2.7772-13.729-0.87983 0-1.8062 1.1795-10.577 13.467-4.6316 6.4886-5.7708 5.8631-2.0719-1.1376 3.678-6.9612 7.1569-13.115 8.2361-14.569 1.5631-2.1058 3.331-6.7622 2.5549-6.7292-0.40071 0.017-2.3036 2.1342-4.2286 4.7048-5.7205 7.6392-15.942 19.028-17.674 19.693-2.827 1.0848-2.4495-6e-3 1.59-4.5954 4.4001-4.9988 18.194-25.057 17.624-25.627-1.1735-1.1736-5.5675 3.4273-6.1284 6.4169-0.54703 2.9159-1.4106 3.7895-5.7771 5.8443-2.8236 1.3288-6.3714 2.8811-7.8839 3.4496s-2.75 1.5922-2.75 2.275c0 0.68272-0.73273 3.1599-1.6283 5.5049-1.184 3.1001-2.753 4.9199-5.75 6.6687-4.1117 2.3992-15.282 5.3076-16.336 4.2534-0.5969-0.5969 2.0234-3.7738 7.8575-9.5266 3.5185-3.4695 6.857-8.8555 6.857-11.062 0-0.58824 1.1306-2.8606 2.5125-5.0497 1.8132-2.8724 3.194-3.9801 4.961-3.9801 2.9365 0 6.4601-3.4943 7.1976-7.1378 0.71447-3.5299 5.7651-7.2205 8.8289-6.4516 1.9025 0.4775 3.4814-0.55215 8.4208-5.4915 3.3435-3.3436 6.0792-6.7182 6.0792-7.4992 0-1.5594-2.5536-1.9513-3.4339-0.52699-1.7692 2.8626-36.036 27.107-38.313 27.107-2.0825 0 8.6893-11.758 13.246-14.459 2.2-1.304 5.5508-3.9842 7.4462-5.956 2.9649-3.0845 3.1691-3.5851 1.4619-3.5851-3.3487 0-23.121 12.057-25.11 15.312-0.43871 0.7178-2.3727 1.9153-4.2977 2.6611-1.925 0.74578-4.254 1.9963-5.1756 2.7789-0.92158 0.78262-2.4966 1.2522-3.5 1.0435-1.3946-0.29004-0.76424-1.0554 2.6756-3.2486 2.475-1.5781 7.3007-5.1593 10.724-7.9582 3.4231-2.799 7.6079-6.1542 9.2996-7.4561 6.6674-5.1311-0.24138-3.0936-11.752 3.4658-4.9022 2.7936-8.9494 4.4013-11.08 4.4013-3.0165 0-13.306 3.7528-20.365 7.4276-1.4705 0.76548-2.9089 1.1566-3.1964 0.86908-0.59606-0.59606 3.1146-6.1427 5.37-8.027 2.0372-1.702 12.618-7.8949 21.914-12.826 4.2056-2.2309 10.108-5.8699 13.116-8.0868 3.0084-2.2169 7.7198-5.2765 10.47-6.7992s5.2081-2.9667 5.4625-3.209c1.3569-1.2924-9.1209 1.2244-12.979 3.1175-6.066 2.9767-17.102 6.7488-17.775 6.0755-0.298-0.29801-0.35432-0.68863-0.12516-0.86806 1.2561-0.98343 9.127-4.6738 9.9685-4.6738 1.5933 0 13.948-6.2465 13.948-7.052 0-1.5541-2.9224-1.7369-6.6312-0.41488-5.1008 1.8183-9.3178 1.804-13.747-0.0465-5.7094-2.3856-4.8565-4.8056 2.6279-7.4562 3.4375-1.2174 7.9609-2.9262 10.052-3.7972s6.1896-1.5209 9.1077-1.4441c3.2554 0.0856 6.037-0.41396 7.198-1.2929 1.5082-1.1417 1.5878-1.4699 0.39229-1.6166-1.9425-0.23843-2.0512-0.25514-11.735-1.803-4.5292-0.72396-7.9901-1.7123-7.691-2.1964 0.29916-0.48407 5.4674-0.88011 11.485-0.88011 8.9771 0 10.941-0.26481 10.941-1.4752 0-1.1704-0.53009-1.2737-2.5651-0.5-3.433 1.3052-3.6369 1.2564-3.2373-0.77475 0.42599-2.1658-6.8078-4.1438-15.389-4.2076-5.2295-0.0389-8.0353-1.1665-6.0129-2.4164 1.3416-0.82916 19.499-1.0085 21.954-0.21684 1.2893 0.41579 2.25 0.31 2.25-0.24777 0-1.0557-8.2727-4.1614-11.085-4.1614-0.95075 0-4.6287-1.3012-8.1732-2.8915-6.2303-2.7954-8.7664-5.3573-6.6177-6.6852 2.2004-1.36 16.098-1.3457 22.598 0.0232 3.7281 0.78519 7.0972 1.1146 7.4869 0.73198s-2.8384-2.8178-7.1736-5.4117c-7.0022-4.1895-16.152-7.4854-25.448-9.1667-3.8245-0.6917-5.3629-2.2238-3.8011-3.7856 0.70314-0.70314 4.4283-1.2117 9.1557-1.25l7.9703-0.06453-0.57416-2.5c-0.68011-2.9614-4.1107-6.6324-10.453-11.186-10.467-7.5144-12.81-9.3501-12.846-10.064-0.07901-1.5615 3.6371-0.65534 7.1769 1.75 2.0235 1.375 4.2531 2.5 4.9546 2.5s0.29826-0.68453-0.89623-1.5212c-4.0675-2.849-12.23-11.973-12.252-13.695-0.01944-1.5462 0.34997-1.505 3.7284 0.41626 2.0625 1.1729 4.875 3.119 6.25 4.3247 2.997 2.628 6.562 4.6045 14.25 7.9002 3.1625 1.3557 5.75 3.1049 5.75 3.8871 0 0.78218 1.848 2.6451 4.1066 4.1398l4.1066 2.7176-1.8566-3.2025c-1.0211-1.7614-2.9065-3.937-4.1898-4.8347-1.2833-0.89774-4.8006-3.9948-7.8162-6.8823s-5.9261-5.25-6.4677-5.25c-1.3697 0-7.8722-7.2222-7.878-8.75-0.0026-0.6875 0.67022-1.25 1.4952-1.25s1.5 0.3902 1.5 0.86711c0 0.47691 1.6875 1.9922 3.75 3.3674 2.0625 1.3752 6.45 5.0747 9.75 8.2213 6.3704 6.0742 11.5 9.4112 11.5 7.4811 0-0.61294-2.9602-4.337-6.5782-8.2757-3.618-3.9387-7.5034-8.9612-8.6343-11.161-1.1309-2.2-2.3332-4.2263-2.6718-4.5028-1.5747-1.286-5.0176-9.0093-5.596-12.553l-0.64369-3.9438 2.278 3c3.6749 4.8396 21.453 22.5 22.65 22.5 0.603 0 1.535 0.78375 2.0711 1.7417 0.53608 0.95792 1.246 1.4703 1.5777 1.1387 1.1416-1.1416-1.4977-6.1138-6.1127-11.516-2.5437-2.9774-4.3566-5.6818-4.0287-6.0097 0.3279-0.3279 2.3692 0.80807 4.5362 2.5244 2.167 1.7163 4.4378 3.1206 5.0461 3.1206 1.0307 0 1.5347 1.3964 1.1997 3.3243-0.07876 0.45338 0.34635 0.52177 0.94469 0.15198 1.2904-0.79748 7.8739 6.0871 12.214 12.773 1.6956 2.6119 3.3234 4.5085 3.6173 4.2147s0.42277-2.2059 0.28648-4.2489c-0.17561-2.6325-1.2196-4.7343-3.5838-7.2147-4.6695-4.8991-5.8729-7.5766-6.6473-14.79-0.65788-6.1283-0.83929-6.446-7.0502-12.345-3.5062-3.3303-5.6194-5.8136-4.696-5.5185 0.92344 0.29511 3.3984 0.85434 5.5 1.2427 2.1016 0.3884 6.3506 2.4172 9.4424 4.5086 5.661 3.8291 7.6838 6.994 9.321 14.583 0.84095 3.8983 2.8267 5.6859 5.4066 4.867 1.474-0.46785 2.4542 0.20657 4.048 2.7854 1.1566 1.8715 2.103 4.1371 2.103 5.0347s0.38958 1.632 0.86573 1.632c1.336 0-0.28545-7.0154-2.7118-11.733-2.4884-4.8382-4.4999-16.548-2.7424-15.965 0.59869 0.1985 1.345 2.2457 1.6584 4.5494s1.1009 4.7195 1.75 5.3686c0.64907 0.64907 1.1801 1.8096 1.1801 2.579s0.63327 2.8169 1.4073 4.55c0.774 1.7331 2.1983 5.8511 3.1651 9.1511 1.9001 6.4857 5.2938 13.967 6.0105 13.25 0.24385-0.24385-0.23754-2.073-1.0698-4.0648s-1.5131-5.4655-1.5131-7.7193-0.45584-4.9496-1.013-5.9907c-0.55715-1.041-1.2498-4.499-1.5391-7.6843s-1.0149-7.5914-1.6122-9.7914-1.2983-5.513-1.5576-7.3623c-0.54071-3.8559 0.50636-12.141 1.5332-12.131 0.3788 0.0035 1.5233 1.466 2.5432 3.25 5.1 8.9202 8.6455 15.925 8.6455 17.081 0 0.7079 0.9 3.1499 2 5.4266 1.1 2.2767 2 4.6113 2 5.1878 0 0.57657 0.45 1.0483 1 1.0483 1.2216 0 1.3354 0.91042-1-8-1.0812-4.125-1.9734-8.2875-1.9829-9.25-0.0246-2.5113 1.7303-2.1596 2.495 0.5 0.35579 1.2375 1.2523 3.6 1.9923 5.25 1.3178 2.9385 2.3869 10.262 2.886 19.77 0.30967 5.8994 2.5482 8.9187 2.728 3.6796 0.0651-1.8975 0.0241-3.9-0.0912-4.45-0.68735-3.2796-0.27695-16.202 0.73995-23.3 2.1168-14.774 2.967-12.344 2.7711 7.9193-0.20345 21.049 0.18046 27.881 1.5668 27.881 0.49223 0 0.91066-2.1375 0.92985-4.75 0.0317-4.3136 1.0414-10.638 3.9513-24.75 0.56706-2.75 1.9272-6.2193 3.0224-7.7095 1.0953-1.4902 1.9914-3.2193 1.9914-3.8423s0.87639-2.2469 1.9475-3.6086l1.9475-2.4759-0.57591 6.8695c-0.44213 5.2737-0.19515 7.6059 1.0632 10.039 1.3376 2.5866 1.4498 4.0145 0.60997 7.7619-0.56603 2.5257-1.697 5.6115-2.5133 6.8574-2.1622 3.2999-0.95382 14.323 1.6611 15.153 1.023 0.32468 1.8599 0.99886 1.8599 1.4982 0 0.51764 1.1446 0.4727 2.6628-0.10455 1.8158-0.69036 2.9928-0.68248 3.7 0.02475 1.4812 1.4813 3.0905 1.3002 1.8913-0.21284-0.54493-0.6875-1.0191-2.6844-1.0538-4.4374-0.0346-1.7531-0.59755-4.1863-1.2509-5.407-0.7546-1.41-0.95769-4.1782-0.55679-7.5893 0.46381-3.9463 0.20981-6.1843-0.9582-8.443-1.1263-2.178-1.6396-6.249-1.7619-13.974-0.0949-5.9953-0.0759-10.9 0.0422-10.9 1.1509 0.0032 2.5794 5.6208 2.8695 11.285 0.21972 4.2888 1.0887 8.3945 2.247 10.617 1.41 2.7052 1.6549 4.2541 0.96627 6.1113-1.0486 2.828-0.19345 8.9878 1.2478 8.9878 0.52508 0 0.9705-2.5875 0.98982-5.75 0.0423-6.9316 3.0904-18.46 5.0522-19.108 1.0966-0.3624 1.1592-0.15082 0.27973 0.94578-0.64696 0.80667-1.3279 6.8345-1.5874 14.052-0.38722 10.768-0.20519 12.97 1.2293 14.872l1.6838 2.2323 2.7526-2.872c1.5139-1.5796 3.4018-4.3649 4.1953-6.1895s3.1433-5.1996 5.2218-7.5c2.0786-2.3004 4.7885-5.857 6.0221-7.9036 2.8689-4.7597 10.404-11.41 13.626-12.026 2.5011-0.47812 3.3193 0.91267 1.6452 2.7968-0.69742 0.78495-5.3763 11.765-5.7314 13.45-0.75086 3.5634-8.0246 17.741-10.532 20.528-2.0009 2.2244-5.2186 10.478-4.4029 11.294 0.62819 0.62818 0.67011 0.58278 3.9084-4.2321 2.5093-3.731 12.901-14.857 19.573-20.955 3.4796-3.1805 5.3747-2.9811 2.1657 0.22787-1.1166 1.1166-2.7124 3.3496-3.5463 4.9622-0.83391 1.6126-2.1886 3.19-3.0105 3.5054-0.82186 0.31538-2.5929 2.3137-3.9356 4.4408s-3.8526 5.186-5.5775 6.7978c-3.4074 3.1839-8.4802 11.43-7.0313 11.43 0.49193 0 1.4268-1.0125 2.0774-2.25 0.65063-1.2375 2.4873-3.5113 4.0814-5.0529 1.5942-1.5416 4.4665-5.2541 6.3829-8.25s3.9056-5.4471 4.4204-5.4471c0.51476 0 2.6384-1.6076 4.7193-3.5725 2.0808-1.9649 5.1333-4.8432 6.7833-6.3962 3.3691-3.1712 7.4008-5.4638 8.201-4.6636 0.29136 0.29136-0.75969 1.6636-2.3356 3.0494l-2.8654 2.5197 2.7152 0.0316c1.6253 0.01892 4.0888-1.1744 6.1372-2.973 3.4368-3.0175 10.278-5.9954 13.773-5.9954 2.419 0 2.3612 0.61216-0.37573 3.9796-2.8428 3.4976-6.0261 8.9208-6.7622 11.52-0.39405 1.3915-1.5886 2.0987-3.9259 2.3245-3.8734 0.37408-8.0619 2.8139-8.0619 4.6961 0 0.70977-0.98053 3.1275-2.179 5.3727-1.1984 2.2452-1.8816 4.3796-1.5181 4.7431 0.36346 0.36347 2.4668-0.6435 4.6741-2.2377 2.2073-1.5942 5.703-4.1211 7.7681-5.6153 3.8775-2.8055 5.2548-3.3358 5.2548-2.0229 0 0.82978-10.95 9.3016-17.77 13.748-2.3487 1.5313-4.0787 2.9758-3.8445 3.2101 0.23422 0.23422 2.2594-0.73164 4.5005-2.1463 2.241-1.4147 4.3389-2.5722 4.6619-2.5722 0.32303 0 3.1375-2.0773 6.2543-4.6163 4.9252-4.012 10.68-7.1871 18.913-10.434 1.2725-0.50185 2.4471-0.49727 2.7611 0.01078 0.30056 0.48631-2.4212 2.2864-6.0484 4.0001-3.6272 1.7138-8.6947 5.04-11.261 7.3915-2.5664 2.3516-7.264 5.5631-10.439 7.1367-5.7348 2.8423-10.58 6.8101-6.2271 5.0995 1.1-0.43228 4.7-1.4796 8-2.3273 3.3-0.84771 6.225-1.8541 6.5-2.2364 0.8197-1.1395 12.089-7.7841 18-10.614 6.8502-3.2788 18.863-6.4416 19.647-5.1728 0.63299 1.0242-5.4692 6.656-7.2824 6.7209-0.62424 0.02235-1.8384 1.1142-2.6982 2.4263s-3.499 3.3459-5.865 4.5195c-5.0792 2.5194-8.8018 5.4821-8.8018 7.0051 0 0.59934-0.12977 1.0897-0.28839 1.0897-0.15861 0-2.5942 0.81202-5.4124 1.8045-4.2075 1.4817-13.299 8.0459-13.299 9.602 0 0.22642 4.1451 0.18763 9.2114-0.08621 8.9877-0.4858 20.479 0.32265 19.434 1.3673-0.28742 0.28742-5.8378 1.1392-12.334 1.8929-6.4964 0.75366-13.837 1.8209-16.312 2.3717-2.475 0.55076-5.85 1.2923-7.5 1.6479-6.0416 1.3021-0.0434 1.5923 10.372 0.50181 9.607-1.0059 19.081-0.48227 20.708 1.1445 0.26802 0.26802-1.2153 0.73602-3.2962 1.04-18.086 2.6419-21.284 3.2332-21.284 3.9352 0 0.44118 1.6875 0.55473 3.75 0.25234 3.3464-0.49063 4.6579 0.0731 12.186 5.2382 8.2649 5.6707 9.7285 7.4634 6.6216 8.1104-2.3549 0.49045-10.354-3.8637-12.159-6.6184-1.4835-2.2642-2.01-2.3932-7.316-1.7929-4.9812 0.56355-6.1649 0.34318-9.1924-1.7113-4.4244-3.0025-7.7222-3.8599-10.051-2.6134-2.2302 1.1936-2.3319 2.5628-0.33833 4.5563 0.825 0.825 1.5 2.3894 1.5 3.4765 0 1.0871 1.2375 3.0657 2.75 4.397 3.0459 2.6809 4.3789 3.1062 4 1.2764-0.34698-1.6755 8.9796-3.9775 13.146-3.2446 1.8679 0.32854 4.4988 1.3198 5.8465 2.2029 1.8089 1.1853 5.0396 1.6243 12.342 1.6773 6.7072 0.0486 10.04 0.45768 10.352 1.2706 0.66679 1.735-1.6877 2.1702-13.198 2.4396-6.8894 0.16126-10.651-0.15059-11.45-0.94911-0.6541-0.6541-0.76177-1.1962-0.23927-1.2046 0.5225-8e-3 0.36815-0.38444-0.343-0.8356-1.668-1.0582-8.5201 0.0402-8.428 1.3509 0.0657 0.93438 2.1799 1.6818 8.221 2.9064 1.375 0.27872 3.4 1.2276 4.5 2.1086 1.882 1.5073 1.705 1.5647-3 0.97167-2.75-0.3466-6.125-0.84275-7.5-1.1026l-2.5-0.47238 2.4413 1.7941c1.3427 0.98678 5.025 2.3222 8.1828 2.9676 6.953 1.4211 14.876 4.7965 14.876 6.3377 0 0.61799-0.7875 0.90612-1.75 0.64029s-4-0.73336-6.75-1.039c-4.5272-0.50308-4.7163-0.448-2.0002 0.58253 1.6499 0.62598 4.3499 1.9615 6 2.9678l3.0002 1.8297-3.3157 4e-3c-1.8237 2e-3 -4.2097-0.47471-5.3024-1.0595s-2.7506-0.91404-3.6843-0.7317c-1.0714 0.20923 0.70975 1.6799 4.8283 3.9868 3.5892 2.0104 7.3715 4.5897 8.405 5.7317s2.3439 2.0764 2.9119 2.0764 3.5752 1.9974 6.6825 4.4387c3.1074 2.4413 7.2979 5.2246 9.3122 6.1852 4.226 2.0152 4.3688 2.4269 1.6851 4.8556-2.8932 2.6183-10.176 0.79754-22.259-5.5652-3.7978-1.9998-3.4937-0.60017 1.4307 6.5854 2.8268 4.1248 4.8887 7.7507 4.5818 8.0576-0.30684 0.30684-1.5376-0.81802-2.7351-2.4997-1.1974-1.6819-2.8276-3.0578-3.6227-3.0578s-2.3189-0.54547-3.3864-1.2122c-1.0675-0.66667-2.2805-0.87262-2.6954-0.45766-0.41497 0.41496 1.7021 2.9633 4.7045 5.6629 10.025 9.0138 12.076 11.305 14.623 16.331 1.3919 2.7467 4.0618 6.438 5.9332 8.203 3.8565 3.6371 4.7918 7.2867 1.4026 5.4729-1.1-0.5887-2-1.5045-2-2.0352s-0.7875-0.97233-1.75-0.98152c-1.9082-0.0182-10.523-7.3877-21.85-18.692-7.1666-7.1522-10.049-8.7649-14.52-8.1242-2.0792 0.29799-1.7024 0.85701 3.5946 5.3329 8.1266 6.8668 20.458 19.799 19.837 20.803-0.28021 0.45339-3.29-1.7919-6.6884-4.9896-3.3984-3.1976-9.0385-8.0639-12.534-10.814s-8.0953-6.5149-10.223-8.3664-3.8679-2.8864-3.8679-2.2997 0.58666 1.4265 1.3037 1.8664c2.0768 1.274 23.131 24.623 27.482 30.478 2.1754 2.9271 5.3635 6.563 7.0847 8.0797 1.7212 1.5168 3.1296 3.2346 3.1296 3.8174 0 1.478-4.2018 0.10257-5.7644-1.8869-0.6954-0.8854-4.4516-5.1055-8.347-9.378s-9.3041-10.703-12.019-14.289-5.3872-6.521-5.9382-6.521c-1.3539 0 0.24828 2.8967 3.3364 6.0323 5.8877 5.9782 20.074 30.968 17.581 30.968-1.0454 0-12.209-10.735-31.216-30.018-4.3275-4.3902-8.2916-7.9822-8.809-7.9822-1.2155 0-0.81109 0.63587 7.8265 12.305 9.418 12.723 15.315 24.657 18.084 36.594 0.38243 1.6488 0.19842 2.1774-0.58862 1.691-0.62975-0.38921-1.145-1.1085-1.145-1.5985 0-0.48997-1.2901-2.8259-2.8668-5.191s-3.4348-6.1001-4.129-8.3001c-1.731-5.486-3.9321-9.4094-7.4336-13.25-3.7308-4.0923-5.1002-4.1747-3.0359-0.18287 0.87234 1.6869 1.4213 3.8244 1.2199 4.75-0.25137 1.1552-0.99135 0.42856-2.3598-2.3171-3.9354-7.8959-7.6011-13.491-8.4825-12.946-1.0549 0.65197 1.5425 5.9876 7.1025 14.59 2.4208 3.7454 3.9946 7.3809 4.0091 9.2609 0.0449 5.8249 1.7469 10.509 5.3462 14.714 4.271 4.9897 5.3547 9.546 3.6216 15.227l-1.267 4.1535-1.1895-3.5c-0.85503-2.5159-2.7778-4.5577-6.8383-7.2616-5.9826-3.9838-9.6042-9.866-11.108-18.041-0.38467-2.0914-1.3426-4.0494-2.1286-4.351-1.6836-0.64606-7.0186-9.6853-7.9686-13.502-0.77594-3.1169-5.4918-8.0473-5.4918-5.7416 0 0.79849 0.70052 2.4519 1.5567 3.6743 0.85619 1.2224 1.3546 2.2225 1.1076 2.2225s1.7662 4.1625 4.4738 9.25c6.3835 11.994 14.761 36.75 12.437 36.75-0.89619 0-8.3404-16.305-9.588-21-1.4071-5.2957-1.8662-6.2972-7.1065-15.5l-3.986-7 0.39409 5c0.21675 2.75 1.5411 7.493 2.943 10.54 2.0536 4.4635 4.887 16.818 4.7363 20.652-0.0778 1.9762-2.9682-3.3259-2.9682-5.4448 0-3.6503-3.0773-12.507-5.1464-14.811-1.0195-1.1354-1.8536-3.2909-1.8536-4.7898s-0.85304-4.3975-1.8956-6.4412-2.4162-5.6489-3.0524-8.0117c-1.0868-4.0361-3.3166-6.2615-4.7939-4.7843-0.7513 0.75131 1.1776 8.5412 3.2313 13.049 2.9328 6.4382 4.5107 10.857 4.5107 12.634 0 1.0161 0.82118 3.3236 1.8248 5.1279 2.0085 3.6106 4.5864 10.897 6.2418 17.642 0.5887 2.3987 2.0769 5.3237 3.307 6.5 1.9501 1.8648 5.3148 12.284 4.296 13.302-0.20036 0.20036-1.492-0.52277-2.8703-1.607-1.6441-1.2933-3.4255-4.7532-5.1793-10.06-1.4703-4.4486-4.5109-12.23-6.757-17.293s-4.306-10.554-4.5777-12.204-1.5235-5.25-2.7819-8-2.5472-5.7875-2.8642-6.75c-0.57032-1.7316-2.6392-2.4842-2.6392-0.9601 0 0.43445 0.62553 3.247 1.3901 6.25 3.435 13.492 5.0003 23.578 6.1247 39.46 0.75161 10.617-0.75816 10.042-2.5675-0.978-1.8598-11.328-4.9829-26.615-6.5902-32.259-0.82025-2.8803-1.2347-5.6522-0.92099-6.1597 0.72591-1.1746-1.5298-11.103-2.5225-11.103-0.40861 0-0.89382 2.938-1.0782 6.529-0.25965 5.0554 0.14472 7.5727 1.7916 11.154 1.7401 3.7835 1.9506 5.2787 1.1571 8.221-0.53345 1.978-1.3781 4.0239-1.877 4.5464-1.4725 1.5422-1.0366 8.92 0.67099 11.358 1.1665 1.6654 1.4116 3.48 0.94002 6.9577-0.61912 4.5652-5.0563 13.247-7.1224 13.936-0.56126 0.18708-1.6096-2.7067-2.3297-6.4306-1.1405-5.8984-4.3051-13.271-5.6964-13.271-0.25703 0-1.2328 1.691-2.1684 3.7579-1.7901 3.9545-7.1071 11.486-8.548 12.108-0.4658 0.2011-2.2658 1.5982-4 3.1048-1.7342 1.5065-4.9531 3.5216-7.1531 4.478-2.2 0.95639-5.73 2.5968-7.8445 3.6452-4.2655 2.1151-5.6555 2.358-5.6555 0.98816zm26.011-19.688c4.8843-6.6966 7.7939-13.361 9.5586-21.894 1.1345-5.4858 1.4971-36.907 0.49618-43-2.4996-15.216-7.1124-30.993-11.01-37.659-12.076-20.652-16.511-27.311-22.473-33.748-7.5111-8.1086-17.727-18.093-18.513-18.093-0.42756 0-1.9913-1.125-3.4749-2.5s-3.1558-2.5-3.7158-2.5c-0.56007 0-2.8994-1.2742-5.1985-2.8316-4.9416-3.3475-6.8364-4.164-12.18-5.2492-2.2-0.44677-6.3974-1.3131-9.3275-1.9251-8.1119-1.6944-10.824-0.8193-4.1725 1.3463 13.243 4.3117 29.909 15.274 41.877 27.545 9.9091 10.16 13.986 15.623 21.355 28.614 10.38 18.3 14.739 31.524 16.812 51 0.52677 4.95 1.4073 10.887 1.9567 13.193 1.7355 7.2844 1.0554 21.115-1.913 38.898-1.3525 8.1028-2.2894 10.342-5.9785 14.292-3.5487 3.7989-3.9047 4.6308-1.2802 2.9918 1.0061-0.62833 4.2377-4.4445 7.1813-8.4803zm19.651-1.1442c-0.29243-2.6125-0.82824-7.225-1.1907-10.25-0.5043-4.2088-0.21117-6.6738 1.2487-10.5 2.181-5.7163 2.1963-6.1216 0.35752-9.4416-0.74376-1.3429-1.6585-3.5866-2.0328-4.9859-0.52909-1.9783-0.97482-0.82346-2.0037 5.1916-0.7278 4.2548-1.6586 7.7359-2.0683 7.7359-1.9724 0-1.478 6.4201 0.86973 11.294 1.3795 2.8635 2.7102 7.5689 2.957 10.456 0.24688 2.8875 0.88657 5.25 1.4215 5.25 0.56835 0 0.75167-1.9745 0.441-4.75zm-44.06-5.7966c0.35154-1.4006 0.33564-2.8501-0.0353-3.221-0.8689-0.8689-2.5306 1.7487-2.5504 4.0176-0.0233 2.6667 1.8623 2.0858 2.5857-0.79657zm20.315 0.29657c0.46817-1.2375 0.64188-2.4743 0.38602-2.7484-0.52818-0.5659-3.3017 2.9534-3.3017 4.1896 0 1.7327 2.1094 0.69012 2.9157-1.4411zm82.084-12.601c0-0.46808-2.2939-2.9641-5.0976-5.5467-5.0841-4.6832-5.0969-4.7108-4.8468-10.399 0.41067-9.3379 0.21406-9.866-5.9265-15.918-6.2591-6.1684-6.0273-5.5022-6.3624-18.286-0.0622-2.3734-1.8148-4-4.3097-4-1.7289 0-2.4577 0.72675-2.9426 2.9342-1.2362 5.6283-0.86527 8.9575 1.2013 10.783 1.11 0.98053 3.0429 4.4011 4.2952 7.6014 1.5506 3.9624 3.5071 6.8072 6.133 8.9174 2.684 2.1569 3.856 3.8858 3.856 5.688 0 5.6969 1.9721 9.608 7.2182 14.315 5.2082 4.673 6.7818 5.5802 6.7818 3.91zm-131.83-2.8039c1.0058-0.91024 1.8287-2.1812 1.8287-2.8242s1.7924-2.9358 3.9832-5.095c2.1907-2.1592 3.9907-4.4332 4-5.0533 9e-3 -0.62015 0.6629-1.6637 1.4526-2.3191s1.7283-2.5238 2.086-4.1521 1.9096-4.1847 3.4488-5.6809c2.7435-2.6669 4.9078-8.2203 3.2036-8.2203-0.47524 0-1.6413 0.85888-2.5914 1.9086-0.95 1.0498-3.0298 2.4481-4.6217 3.1076s-3.196 2.163-3.5645 3.3414-1.7335 3.4145-3.0333 4.9692c-1.2997 1.5547-2.3632 3.5813-2.3632 4.5035 0 0.92222-1.575 4.9234-3.5 8.8915-1.925 3.9681-3.5 7.454-3.5 7.7465 0 1.0056 1.3456 0.52898 3.1713-1.1232zm34.466-4.595c0.92848-1.7875 1.7275-4.4875 1.7757-6.0001 0.0697-2.19-0.35868-2.7501-2.1034-2.75-2.7668 9e-5 -3.038 0.47612-3.8779 6.8075-0.58154 4.3839-0.43914 5.1926 0.91434 5.1926 0.88173 0 2.3628-1.4625 3.2913-3.25zm16.363-0.30902c0-1.3425-0.45-2.441-1-2.441s-1 1.3766-1 3.059c0 1.7847 0.41658 2.8016 1 2.441 0.55-0.33992 1-1.7165 1-3.059zm-2.5138-17.93c-0.33358-12.892-1.3877-18.656-4.2029-22.983-0.70581-1.0849-1.2833-2.9974-1.2833-4.25 0-2.3395-1.4012-3.0555-2.5-1.2775-1.4435 2.3356-2.3234 0.68287-1.8635-3.5 0.57824-5.2584-0.83959-5.9418-3.1317-1.5094-0.85057 1.6448-2.6851 3.7366-4.0768 4.6485-1.3917 0.91186-3.1939 2.9411-4.0049 4.5094-1.7282 3.3419-3.4232 3.728-3.4232 0.77957 0-1.1396-1.131-4.0018-2.5134-6.3606-1.8312-3.1248-2.4657-5.549-2.3377-8.9324 0.20371-5.3857-0.44951-6.4604-2.7608-4.5422-4.666 3.8724-8.9537 15.822-6.2719 17.479 0.75105 0.46417 0.92011 2.9572 0.51269 7.5604-0.60254 6.8078-0.58618 6.8678 1.8724 6.8678 1.7344 0 3.1597-1.0488 4.7395-3.4876 1.2426-1.9182 2.7916-3.4932 3.4422-3.5 1.3955-0.0146 8.3169 8.1748 8.3169 9.8406 0 0.63086 0.48955 1.147 1.0879 1.147 0.71518 0 0.85637-1.3704 0.4121-4-0.8077-4.7807 0.73952-5.3713 2.9373-1.1212 0.81879 1.5834 2.1541 3.1342 2.9674 3.4462 3.0892 1.1854 4.553 4.9315 3.5853 9.1749-1.2095 5.3038 0.38322 11.309 3.3124 12.488 5.5316 2.2276 5.5624 2.1535 5.1838-12.478zm-80.514 3.8891c4.3599-2.8853 7.0279-6.3687 7.0279-9.176 0-2.9521 3.7411-6.1587 7.9752-6.8358 3.1523-0.50408 4.2112-1.2609 5.4672-3.9077 0.85672-1.8054 1.5577-3.9769 1.5577-4.8256 0-2.6579 4.3143-6.4689 9-7.95 3.5394-1.1188 4.897-2.2118 6.3596-5.1206 2.4458-4.8639 1.1874-5.9199-2.1866-1.8349-1.651 1.9989-4.5849 3.875-7.6731 4.9065-6.052 2.0215-11.335 5.8426-12.061 8.7231-0.29386 1.1666-2.0308 3.1004-3.8599 4.2972-3.2602 2.1333-8.0616 9.4134-9.2002 13.95-0.31644 1.2608-2.0712 3.175-3.8994 4.2536-3.9736 2.3445-6.4373 6.1205-3.9934 6.1205 0.85614 0 3.3248-1.1701 5.4859-2.6002zm67.278-1.0158c1.0045-0.35431 1.75-1.6326 1.75-3.0006 0-2.9571-0.27631-2.9586-3.4485-0.0187-2.639 2.4457-3.5026 5.2453-1.3015 4.2193 0.6875-0.32048 2.0375-0.86047 3-1.2zm36.31-6.8796c-0.0599-5.4663-0.79462-6.9419-1.9532-3.9226-0.81311 2.1189-0.77357 7.9183 0.0597 8.7515 1.5104 1.5104 1.9507 0.3877 1.8935-4.8289zm69.787-11.566c-3.2162-3.9598-7.0793-8.7882-8.5846-10.73s-4.756-5.8202-7.2238-8.6193c-2.4677-2.7991-5.3285-6.1769-6.3573-7.5061-1.2338-1.5941-2.4424-2.1973-3.5508-1.772-2.2892 0.87847-1.0885 5.5411 2.066 8.0224 1.2984 1.0213 5.5536 5.5265 9.456 10.012 6.429 7.3888 18.834 18.774 19.695 18.075 0.19121-0.15521-2.2838-3.5221-5.5-7.4819zm-90.058 5.0617c-0.28766-1.1-0.69553-2-0.90638-2s-0.38337 0.9-0.38337 2 0.40787 2 0.90638 2 0.67103-0.9 0.38337-2zm-1.2898-8.5c0-1.925-0.35964-3.5-0.7992-3.5s-0.61533 1.575-0.39059 3.5c0.22473 1.925 0.58437 3.5 0.7992 3.5 0.21482 0 0.39059-1.575 0.39059-3.5zm31.25-6.8685 2.75-3.0559v2.7122c0 3.2136 1.367 3.4744 3.732 0.71223 0.94185-1.1 2.3503-2 3.13-2 1.7728 0 4.064-2.9295 4.1062-5.25 0.0463-2.5492 1.8367-2.1446 2.2122 0.5l0.31955 2.25 2.2078-2.2078c1.9536-1.9536 2.142-2.9184 1.636-8.3795-0.40808-4.4042-0.2528-5.9745 0.5422-5.4832 0.61273 0.37869 1.1209 2.1245 1.1294 3.8795 0.0174 3.6264 1.48 6.5314 2.6803 5.3238 0.4424-0.44508 0.76262-3.6946 0.7116-7.221-0.0938-6.4852 1.0304-8.5006 2.1821-3.9118 0.67192 2.6772 2.4106 3.4454 2.4106 1.0651 0-0.7892-0.43281-2.5733-0.96179-3.9646-1.311-3.4482 0.59876-4.4914 2.118-1.1569 1.2423 2.7265 2.8437 3.4218 2.8437 1.2345 0-1.8932-3.1034-11-4.1329-12.128-1.093-1.1975-1.1207-2.55-0.0523-2.55 0.44813 0 1.6345 1.6875 2.6364 3.75 1.0019 2.0625 2.013 3.2167 2.2469 2.5649 0.43227-1.2046-1.929-9.0094-3.7619-12.434-1.6167-3.0208 0.6729-2.2385 2.9957 1.0235 1.1374 1.5974 2.0681 3.3423 2.0681 3.8776 0 0.53525 0.74561 1.5908 1.6569 2.3456 1.5122 1.2525 1.6108 0.96258 1.1294-3.3192-0.34842-3.0989-1.6005-6.1507-3.6882-8.9896-1.7804-2.4209-2.6851-4.4564-2.0716-4.661 1.4492-0.48308 4.9883 2.7809 6.0634 5.5922 0.47327 1.2375 1.3105 2.25 1.8605 2.25 2.3029 0-4.3476-12.339-7.584-14.071-1.3016-0.6966-2.3666-1.8655-2.3666-2.5976 0-1.8373 0.34313-1.732 5.2146 1.601 2.357 1.6126 4.4385 2.5033 4.6256 1.9794 0.51529-1.4429-3.7868-9.1856-5.9429-10.696-2.4678-1.7285-2.4203-3.2155 0.10266-3.2155 1.1 0 2-0.36172 2-0.80383 0-1.722-6.6954-7.0213-10.342-8.1855-2.7063-0.86396-3.5287-1.5399-2.7821-2.2865s2.2807-0.69423 5.1894 0.17725c2.2712 0.68046 4.319 1.0477 4.5506 0.81608 0.23163-0.23162-1.686-2.0628-4.2615-4.0693-3.2123-2.5027-5.7115-3.6482-7.9595-3.6482-6.2333 0-5.0431-3.8351 1.461-4.7075 2.2793-0.30571 4.1441-0.86058 4.1441-1.233 0-2.8278-8.2464-6.6696-11.575-5.3925-0.78397 0.30084-1.4254 0.03471-1.4254-0.5914s0.71273-1.4119 1.5838-1.7462c2.1086-0.80915-0.1031-2.2925-3.4505-2.3141-1.9881-0.01286-2.2572-0.3752-1.6825-2.2653 1.7001-5.5913 2.2814-8.75 1.6102-8.75-0.40057 0-2.678 1.8-5.0611 4s-4.7265 4-5.2077 4c-0.48121 0-2.2957-2.2856-4.0323-5.0791-2.9981-4.823-3.2012-4.9617-4.0276-2.75-0.84968 2.2741-0.90409 2.2832-2.3013 0.38799-0.78709-1.0676-1.4311-2.5812-1.4311-3.3635 0-1.0414-0.87038-1.2874-3.25-0.91836-2.1447 0.3326-4.2959-0.12995-6.3253-1.3601-2.423-1.4687-4.188-1.7323-8.3213-1.2428-4.8949 0.57973-5.2065 0.77876-4.6557 2.9736 0.68459 2.7276 0.29423 2.8642-2.7329 0.95639-1.2182-0.76773-3.2561-1.7072-4.5288-2.0877-1.8826-0.56286-2.2554-0.34925-2 1.1459 0.27631 1.6173-0.28574 1.7955-4.686 1.4863l-5-0.35139 2.4243 2.6014c2.4535 2.6327 1.4976 3.4328-1.9176 1.605-1.024-0.54803-2.5953-0.71494-3.4918-0.37091-1.3362 0.51276-1.0339 1.1254 1.6776 3.3989 4.487 3.7623 3.0728 4.6352-2.4837 1.533-4.487-2.5051-4.5531-2.511-6.8697-0.62129-2.114 1.7245-2.1706 1.9737-0.58906 2.5894 2.7492 1.0703 2.0765 2.7661-0.80988 2.0416-3.0478-0.76495-9.4401 0.2758-9.4401 1.537 0 0.48879 0.62515 0.88871 1.3892 0.88871 0.76406 0 2.4516 0.92161 3.75 2.048l2.3608 2.048-3.0195-0.57684c-1.9454-0.37165-3.724-0.03302-5 0.95198-1.9431 1.4999-1.9446 1.5566-0.077 3.0013 2.0701 1.6013 2.1678 1.5056-3.1535 3.0921-0.68754 0.20498-1.25 0.85093-1.25 1.4355 0 1.1002 0.74681 1.4539 5.0203 2.3779 3.0999 0.67024 11.354 5.9116 15.732 9.989 2.5263 2.3533 3.5193 2.7619 4.45 1.8312 1.9433-1.9433 2.798-1.3928 2.798 1.802 0 1.65 0.43417 3 0.96482 3 1.4475 0 3.0356-3.5007 3.0322-6.6843-3e-3 -2.7392-0.14956-2.8157-5.3956-2.8157-6.1501 0-9.3515-2.0683-9.3515-6.0419 0-2.7041 1.4845-3.3137 2.3809-0.97767 0.66855 1.7422 6.8422 3.659 9.0528 2.8107 2.4944-0.95719 5.9051-4.549 7.7739-8.1868 1.2495-2.4323 1.9732-3.0254 2.5509-2.0907 0.92855 1.5024 0.34507 3.445-2.0984 6.9863-1.101 1.5957-1.933 5.3537-2.3 10.389l-0.57504 7.8891 2.0953-1.8891c1.8216-1.6424 2.0179-2.634 1.5027-7.5926-0.3453-3.3234-0.18371-5.9562 0.38722-6.309 0.53889-0.33306 0.9798 0.29983 0.9798 1.4064 0 3.0989 2.2122 7.2386 3.5864 6.7113 0.68473-0.26276 1.4936 0.57734 1.8242 1.8947 0.32672 1.3017 1.4247 2.6304 2.44 2.9526 1.9608 0.62235 4.1494 4.5036 4.1494 7.3586 0 0.94439 0.95593 4.1857 2.1243 7.203 2.3657 6.1094 2.8869 10.128 1.3757 10.608-1.3981 0.44415-5.4988-8.0181-5.5056-11.361-9e-3 -4.2611-1.9487-10.261-3.3178-10.261-0.81169 0-1.1192 1.2742-0.90488 3.75 0.26743 3.0901-0.23585 4.338-2.8602 7.0919l-3.1847 3.3419 4.4862 4.1581c12.909 11.965 16.592 14.05 19.757 11.185 1.1166-1.0106 2.0303-2.6835 2.0303-3.7176 0-1.6022 0.31153-1.7135 2.1074-0.75237 4.6556 2.4916 4.7787-1.8584 0.25132-8.8774-1.4095-2.1852-1.6355-2.2288-3.8924-0.75-3.5145 2.3028-4.8654 1.9493-6.4198-1.6801-1.3953-3.2578-1.5301-5.948-0.4383-8.75 0.32145-0.825 0.5343-5.775 0.47301-11-0.0641-5.464 0.35216-10.137 0.9798-11 0.61101-0.83989 1.2846-1.0599 1.5307-0.5 1.6423 3.737 3.0797 5.8986 4.1589 6.2546 0.79516 0.26228 1.0283-0.16704 0.64005-1.1788-0.65805-1.7148 2.027-6.5758 3.6323-6.5758 0.53732 0 0.97695 0.91412 0.97695 2.0314 0 2.5892 1.9297 3.326 5.3276 2.0342 2.8251-1.0741 3.523-3.815 1.4891-5.8489-1.8577-1.8577-0.0341-2.7372 3.1687-1.5283 2.3436 0.88461 2.9679 0.82192 3.2118-0.3225 0.4405-2.0668 4.8028 1.1459 4.8028 3.5372 0 2.1825 2.5864 7.5345 4.2708 8.8373 0.67609 0.52297 3.3748 1.8078 5.9972 2.8552 5.8522 2.3374 6.092 4.9044 0.45811 4.9044-4.2438 0-4.6942 0.58844-1.5408 2.0129 1.2019 0.54292 2.3856 1.6131 2.6304 2.3783 0.71745 2.2425-4.845 0.40301-8.2023-2.7124l-2.8866-2.6787 0.57525 3.7595c0.31639 2.0677 1.5028 5.0622 2.6366 6.6544 2.8416 3.9907 2.5814 4.9146-0.56631 2.0104l-2.6276-2.4243 0.53416 3c0.29378 1.65 0.86706 4.0636 1.274 5.3635 0.68337 2.1832 0.57336 2.2744-1.4424 1.1956-1.2002-0.64233-2.4522-2.5181-2.7823-4.1683-0.46675-2.3338-0.95871-2.8258-2.2141-2.2144-0.88772 0.43232-3.9472 0.79449-6.7989 0.80481-4.3836 0.0159-5.6569-0.43354-8.2396-2.9083-3.4581-3.3136-4.4837-3.047-3.4912 0.90752 0.4444 1.7706 1.68 3.0644 3.5487 3.7158 1.5768 0.54967 2.869 1.5179 2.8717 2.1516 7e-3 1.7399 6.1346 8.0543 10.833 11.163 5.4176 3.5852 5.3195 4.8794-0.32152 4.2435l-4.484-0.50541 2.6082 3.1254c1.4345 1.719 3.2273 3.4852 3.984 3.925 1.5896 0.92397 1.8541 5.2867 0.37584 6.2003-0.55 0.33992-1 1.655-1 2.9224 0 1.8442-1.1484 2.8118-5.75 4.845-3.1625 1.3973-7.6034 2.8383-9.8687 3.2023-3.7214 0.59789-4.3213 0.3901-6.2183-2.154-1.1548-1.5486-2.1139-2.2466-2.1313-1.551-0.0174 0.69557 1.4308 2.8268 3.2183 4.7362 3.4552 3.6906 6.9408 4.4605 13.5 2.9818 4.5252-1.0202 4.0575 0.25357-0.90965 2.4774-2.5932 1.161-5.3761 1.6649-7.3899 1.3381l-3.2302-0.5242 0.43804 4.863c0.85348 9.4752 1.324 11.049 3.6099 12.076 2.9223 1.3128 6.4112-0.11387 9.9818-4.0817zm-5.694-8.5408c-0.30909-0.50013 1.9857-2.6494 5.0995-4.7762 3.1138-2.1268 5.7926-4.5301 5.9528-5.3407 0.16022-0.81061 0.95336-3.2738 1.7626-5.4738 2.0062-5.4544 3.2607-2.3013 1.6898 4.2471-1.401 5.8402-1.5755 6.0909-6.6144 9.5057-4.1495 2.8121-6.8932 3.4512-7.8902 1.8379zm-29.408-88.978c-1.0592-0.67121-0.84868-1.2091 0.97251-2.4847 3.1635-2.2158 3.8793-2.0549 3.8793 0.87196 0 2.6064-2.1539 3.3224-4.8518 1.6127zm18.086-4.3145c0.50554-1.5166 9.3122-3.8883 13.189-3.5518 4.0539 0.35179 4.3076 2.3033 0.47323 3.64-4.4274 1.5434-14.185 1.4804-13.662-0.08815zm104.58 100.49c-0.3227-1.6757-6.2103-6.2852-8.0279-6.2852-1.0425 0 6.272 7.6207 7.5348 7.8503 0.45283 0.0823 0.67472-0.62197 0.49308-1.5651zm-122.78-7.6525c-1.0087-3.7571-2.3294-7.3264-2.9348-7.9319-1.6474-1.6474-1.4109 0.79896 0.41943 4.3384 0.83615 1.6169 1.5134 3.2821 1.505 3.7003-8e-3 0.41826 0.47731 2.2531 1.0794 4.0775 1.8924 5.734 1.8465 2.9504-0.069-4.1843zm-104.04 2.3244c3.025-1.2052 7.795-3.2636 10.6-4.5742 2.805-1.3106 5.4355-2.3829 5.8456-2.3829 0.41014 0 1.9402-0.84817 3.4001-1.8848 4.5967-3.264 11.975-7.1152 13.632-7.1152 1.6821 0 5.6812-2.2399 9.0224-5.0534 1.1-0.92628 3.2375-1.9768 4.75-2.3344 1.6136-0.38157 2.7977-1.3656 2.8654-2.3812 0.24721-3.7097 0.44824-4.1862 2.3846-5.6527 3.2656-2.4731 4.5285-1.9708 3.8297 1.5231-0.53368 2.6684-0.35572 3.0498 1.275 2.732 1.7465-0.34027 1.8977-1.4278 1.9267-13.851 0.02556-10.954-0.31941-14.326-1.8401-17.982-4.3434-10.443-4.6851-10.699-7.7024-5.75-2.3561 3.8642-2.5806 6.191-0.52106 5.4007 2.2408-0.85987 2.8334 1.081 1.09 3.5701-0.85686 1.2234-1.5579 3.5439-1.5579 5.1567 0 2.8721 0.04129 2.8951 2.0061 1.117 2.5128-2.274 3.9038-1.1574 1.6544 1.3282-2.0754 2.2933-2.1362 4.1774-0.13486 4.1774 1.3309 0 1.3081 0.41491-0.17877 3.25-0.93745 1.7875-1.9663 4.8075-2.2863 6.7112-0.49403 2.9386-1.0808 3.5632-3.8866 4.1371-1.8176 0.37173-4.3168 1.6267-5.5538 2.7888-1.237 1.1621-2.8066 2.1129-3.4879 2.1129-0.68132 0-4.3409 2.025-8.1323 4.5s-7.1575 4.5-7.4801 4.5-2.0657 1.4625-3.8736 3.25-6.1804 4.3734-9.7167 5.7465c-6.8212 2.6486-15.774 7.9287-15.871 9.3604-0.03205 0.47134 0.50423 0.61722 1.1917 0.32418 0.6875-0.29305 3.725-1.5189 6.75-2.7241zm85.396-0.54735c0.77318-2.0149-0.0705-3.4098-2.0623-3.4098-1.0007 0-1.3334 0.55922-0.94098 1.5818 0.33385 0.86998 0.60699 1.995 0.60699 2.5 0 1.5211 1.7421 1.0326 2.3963-0.67203zm126.85-5.6598c-1.275-5.0907-10.011-12.609-14.766-12.708-1.109-0.0231-4.4766-2.2919-7.4837-5.0419-3.6256-3.3157-6.3431-5-8.067-5-3.462 0-3.7166 0.39416-3.0207 4.6758 0.4791 2.9475 1.1781 3.8496 3.5913 4.6346 1.648 0.53609 4.1909 1.8106 5.6508 2.8321 1.4599 1.0216 3.6035 1.8574 4.7636 1.8574s2.8906 0.42282 3.8456 0.9396 2.9473 1.1937 4.4273 1.5042 4.405 2.2954 6.5 4.4107c4.5238 4.5678 5.3094 4.8944 4.5584 1.8955zm-123.25 0.28518c0-0.53065-1.0125-1.473-2.25-2.0942s-3.2996-2.3245-4.5824-3.7852l-2.3324-2.6558 0.66863 2.5c1.0695 3.9988 8.4963 9.2743 8.4963 6.0352zm-39-7.0352c0-0.55-0.45-1-1-1s-1 0.45-1 1 0.45 1 1 1 1-0.45 1-1zm48.04-5.1185c-2.0672-5.4797-6.0216-12.245-6.0335-10.323-4e-3 0.58238 0.6541 1.9324 1.4616 3 0.8075 1.0676 1.4825 2.4464 1.5 3.064 0.0489 1.7269 4.1392 10.603 4.6505 10.092 0.24839-0.24838-0.46198-2.8733-1.5786-5.8331zm-57.54 3.1185c0.33992-0.55-0.08352-1-0.94098-1-0.85746 0-1.559 0.45-1.559 1s0.42344 1 0.94098 1 1.2191-0.45 1.559-1zm28.767-4.3828c-0.69776-3.6501 1.5239-4.1433 3.4609-0.76829 1.576 2.746 2.0979 2.9589 6.6867 2.7268 2.7375-0.13843 5.1015-0.6621 5.2533-1.1637 0.15186-0.50161-2.0738-2.4694-4.946-4.3729-2.8722-1.9035-5.8971-4.0617-6.7221-4.796s-2.3993-1.9526-3.4984-2.7074c-1.0991-0.75475-1.6644-1.7063-1.2561-2.1146 0.40826-0.40827 1.5326-0.0898 2.4984 0.70775 0.96587 0.79753 3.3311 2.2134 5.2561 3.1463 1.925 0.93295 4.5125 2.4326 5.75 3.3325 1.2375 0.89991 2.25 1.2001 2.25 0.66708 0-1.2685-16.007-13.275-17.698-13.275-0.7854 0-1.3331 1.2888-1.3811 3.25-0.04375 1.7875-0.24038 5.7209-0.43696 8.7409-0.26079 4.0065 0.07294 5.9664 1.2345 7.25 2.2944 2.5353 4.0926 2.2193 3.5491-0.6237zm68.501-0.84011c0.70387-0.58416 1.0776-1.2643 0.83046-1.5114-0.71616-0.71616-7.599 2.0406-7.599 3.0436 0 1.0897 4.9631-0.0338 6.7686-1.5322zm98.883-0.14439c-1.0169-0.623-4.485-2.8202-7.707-4.8827-3.222-2.0625-6.1396-3.75-6.4835-3.75s-5.2008-2.6144-10.793-5.8097c-5.5922-3.1954-12.418-6.9712-15.168-8.3907s-6.4334-3.4092-8.1854-4.4215c-1.752-1.0123-3.3994-1.624-3.6608-1.3593-0.26145 0.26467-0.79058 2.1687-1.1758 4.2312-0.601 3.2175-0.44175 3.75 1.1215 3.75 1.6622 0 12.166 4.5858 31.104 13.579 3.9619 1.8815 7.6369 3.4208 8.1667 3.4208s1.1132 0.41097 1.2965 0.91327c0.41277 1.1309 12.122 5.1443 12.824 4.3955 0.28016-0.29883-0.32263-1.053-1.3395-1.676zm-105.15-2.6327c2.1673-2.3948 0.73407-2.6748-4.4472-0.86858-2.3698 0.82611-2.8823 1.3617-1.8992 1.9847 2.206 1.3981 4.4241 1.008 6.3464-1.1161zm67.5 0.0567c0-1.2829-4.1313-4.0936-5.1193-3.483-1.2185 0.75306 0.0862 3.2585 1.9544 3.7533 2.7941 0.74 3.1649 0.70832 3.1649-0.27037zm7.375-1.84c-1.1687-0.9442-3.1333-2.3917-4.3657-3.2167s-3.2012-2.2129-4.375-3.0842c-2.018-1.4979-8.5002-4.9158-9.3231-4.9158-0.20985 0 0.11594 0.92956 0.72398 2.0657 0.60803 1.1361 2.9864 2.8823 5.2852 3.8804s5.3047 2.9461 6.6797 4.3288c1.375 1.3827 3.625 2.5466 5 2.5863l2.5 0.0722-2.125-1.7167zm-80.813-2.7894c2.9909-1.4149 5.4381-2.9375 5.4381-3.3834 0-1.632-4.32-1.8804-6.6098-0.3801-2.2032 1.4436-2.555 1.3752-5.4495-1.0603-1.7018-1.432-3.4728-2.6036-3.9357-2.6036s-1.5533-0.27314-2.4233-0.60699c-2.2932-0.87996-1.9528 0.87229 1.1682 6.0136 1.6071 2.6474 3.503 4.5433 4.5619 4.5618 0.99655 0.0174 4.259-1.1261 7.25-2.541zm15.423-1.6774c8e-3 -0.4125-0.43469-0.75-0.98469-0.75s-0.99311 1.0125-0.98469 2.25c0.0124 1.8194 0.20082 1.963 0.98469 0.75 0.53316-0.825 0.97627-1.8375 0.98469-2.25zm-52.5-8.9103c-3.8207-7.2708-5.5517-9.4972-15.344-19.736l-5.3594-5.6036 6.1494 7.483c3.3822 4.1157 8.7189 11.605 11.859 16.644 3.1405 5.0384 5.8849 8.9962 6.0986 8.795 0.21374-0.20113-1.3178-3.6131-3.4035-7.5821zm-8.0801 3.9746c-4.2414-4.8664-12.837-11.792-14.655-11.808-1.2509-0.011-0.83947 3.0468 0.60426 4.4905 0.74484 0.74484 2.8823 2.0162 4.75 2.8253 1.8676 0.80906 4.5207 2.6153 5.8957 4.0139 3.1916 3.2463 6.1838 3.6664 3.405 0.47803zm-54.825-3.4123c2.5532-1.0668 5.0038-1.3698 7.3721-0.91139 5.1644 0.99951 8.1778 0.70154 10.051-0.99389 0.90963-0.8232 2.1809-1.4967 2.8251-1.4967 0.64419 0 1.1713-0.66168 1.1713-1.4704 0-1.2104-1.4368-1.3902-8.1271-1.0169-4.4699 0.24941-8.6498 0.88726-9.2887 1.4174s-4.2584 1.4587-8.0435 2.0634c-7.8174 1.2488-9.3353 1.8883-7.3975 3.1162 2.1362 1.3536 7.263 1.0364 11.437-0.70768zm159.98 0.0662c-1.0676-0.80751-2.4176-1.4539-3-1.4364-0.58238 0.0175-0.18536 0.6925 0.88226 1.5 1.0676 0.80751 2.4176 1.4539 3 1.4364 0.58238-0.0175 0.18536-0.6925-0.88226-1.5zm-108.56-7.9203c0-1.1633-10.845-8.5479-12.554-8.5479-1.6945 0 0.33471 2.5084 4.8036 5.9382 5.5458 4.2562 7.75 4.9985 7.75 2.6098zm125-5.1549c-4.7781-2.7425-12.359-4.5789-10.461-2.534 1.1414 1.2296 11.07 4.9586 13.461 5.0559 0.825 0.0336-0.525-1.1013-3-2.5219zm-61.727-10.328c0.63543-2.4299-1.0983-3.1294-5.8462-2.359-3.1073 0.50424-3.9797 0.22001-5.5354-1.8035-1.2449-1.6192-1.849-1.9132-1.8537-0.9021-0.0109 2.3496 1.5356 4.2172 4.6222 5.5818 4.4182 1.9534 8.0236 1.7369 8.6131-0.51726zm-40.273-1.0646c0-1.1-0.40787-2-0.90638-2s-0.67103 0.9-0.38337 2 0.69553 2 0.90638 2 0.38337-0.9 0.38337-2zm47.968 0.25c-0.0444-1.0473-2.5526-4.25-3.3284-4.25-0.84641 0-0.82479 3.4816 0.0269 4.3333 0.90725 0.90725 3.3409 0.84583 3.3015-0.0833zm-98.49-6.8569c1.2357-1.886 1.4058-2.9092 0.61501-3.7-1.3914-1.3914-2.7334-0.0767-3.6307 3.5569-0.86604 3.5066 0.76127 3.5838 3.0157 0.1431zm93.542-0.91727c0.69572-0.83829 1.0883-1.6258 0.87244-1.75-5.0298-2.894-5.1891-2.9412-4.5812-1.3569 0.33072 0.86184 0.16363 1.8375-0.37133 2.1681-1.2497 0.77237-0.22247 2.4629 1.4966 2.4629 0.7252 0 1.8878-0.68587 2.5835-1.5242zm-17.02-0.47583c0-0.55-0.45-1-1-1s-1 0.45-1 1 0.45 1 1 1 1-0.45 1-1zm-83.208-0.84999c1.4883-0.94422-7.3782-4.1279-11.656-4.1855-1.4493-0.01948-3.7602-0.67854-5.1352-1.4646-2.823-1.6138-6-1.9428-6-0.62132 0 1.1847 4.1888 2.7894 11.852 4.5402 3.4934 0.79816 6.6059 1.7054 6.9167 2.0162 0.79699 0.79699 2.5088 0.67571 4.0232-0.28503zm14.208-3.65c-0.70675-0.85158-1.51-1.3233-1.785-1.0483s0.07825 1.1968 0.785 2.0483 1.51 1.3233 1.785 1.0483-0.07825-1.1968-0.785-2.0483zm84-3.6861c0-1.31-4.2548-0.58298-4.7113 0.80503-0.23221 0.70613 0.56895 0.93981 2.1717 0.63343 1.3968-0.26702 2.5396-0.91432 2.5396-1.4385zm44.008-15.612c2.4791-1.0574 5.8541-3.0271 7.5-4.3772 4.1656-3.4169 9.5038-6.4526 12.644-7.1901 1.4582-0.34251 5.1404-2.6503 8.1826-5.1285 3.0422-2.4781 5.8991-4.5157 6.3487-4.528 0.4496-0.01223 1.9424-0.90222 3.3174-1.9778 4.3154-3.3756-0.12308-2.1753-8 2.1633-8.4951 4.6791-22.303 11.531-25.5 12.654-2.2 0.77284-4.3048 1.9317-4.6774 2.5752-0.37255 0.64353-3.3992 2.471-6.7258 4.0609-5.533 2.6445-5.9961 3.1106-5.4344 5.4686 1.0165 4.2671 1.4339 4.376 4.7003 1.2266 1.7255-1.6637 5.1656-3.8901 7.6448-4.9474zm-132.87-1.5663c-2.3561-2.4007-6.0732-4.9554-8.2602-5.6772-3.5448-1.1699-8.1971-5.2586-10.539-9.2623-1.057-1.807-6.669-4.7051-9.0337-4.6652-1.6423 0.02775-1.654 0.1154-0.1336 1.0027 0.91633 0.53477 3.987 3.8891 6.8237 7.454 3.3222 4.1751 6.8218 7.3258 9.8339 8.8536 2.572 1.3046 6.2513 3.3047 8.1763 4.4447s4.3812 2.1046 5.4582 2.1436c1.5626 0.05662 1.0928-0.81079-2.3256-4.2939zm118.16-6.0605c0.98758-0.74898 2.0604-2.9932 2.3839-4.9872 0.44857-2.7642 1.7722-4.6166 5.5721-7.7981 5.0381-4.2181 8.7484-10.714 8.7484-15.316 0-2.5908 3.3469-5.4738 6.3545-5.4738 3.4576 0 8.6455-3.9494 8.6455-6.5816 0-1.3301-0.20246-2.4184-0.44992-2.4184s-3.06 1.5738-6.25 3.4974-6.6099 3.4986-7.5997 3.5c-2.776 4e-3 -7.5003 2.7798-8.0701 4.7416-0.2813 0.96853-0.81324 4.334-1.1821 7.4789-0.53564 4.5669-1.0858 5.8497-2.7332 6.3726-1.3529 0.4294-2.4788 0.08538-3.2724-0.99983-1.0843-1.4829-1.2721-1.4061-1.8109 0.74059-0.33062 1.3173-2.408 5.1009-4.6164 8.408-4.7656 7.1366-5.0096 8.9773-1.2653 9.5445 1.5125 0.22912 2.975 0.4697 3.25 0.53462 0.275 0.06491 1.308-0.49478 2.2956-1.2438zm13.125-2.2817c1.1924-1.6277 1.382-2.3124 0.5-1.8054-2.3559 1.3542-4.9208 3.7707-4.9208 4.6361 0 1.4353 2.4405-0.12735 4.4208-2.8307zm-120.9-1.0083c-0.9047-4.8225-3.2369-9.2846-4.8528-9.2846-0.70175 0-3.5027-2.0537-6.2243-4.5637-2.7216-2.5101-5.8484-5.388-6.9484-6.3955s-3.358-3.4073-5.0178-5.333c-3.288-3.8147-10.482-8.5331-10.482-6.8749 0 0.56678 2.7027 3.6487 6.006 6.8488s6.7001 6.4933 7.5484 7.3183c1.5939 1.5501 10.787 12.31 15.794 18.486 3.7192 4.5876 5.0634 4.5226 4.1771-0.2019zm117.97-1.2846c0.33992-0.55 0.14148-1-0.44098-1s-1.059 0.45-1.059 1 0.19844 1 0.44098 1 0.7191-0.45 1.059-1zm-36.5-5.4652c0-0.80586 1.275-2.9434 2.8333-4.75s3.8649-5.3098 5.1257-7.7848c1.2608-2.475 2.7626-5.4 3.3372-6.5 11.217-21.474 13.65-26.5 12.827-26.5-1.1686 0-4.1233 2.8129-4.1233 3.9254 0 0.4304-1.125 1.9964-2.5 3.4801-1.375 1.4836-2.5 3.094-2.5 3.5786 0 0.4846-0.86932 1.157-1.9318 1.4942-1.3034 0.41367-1.914 1.4929-1.8771 3.3174 0.0598 2.9539-7.5803 15.18-9.5238 15.241-0.64199 0.02004-2.3975 1.6582-3.9011 3.6403-2.7544 3.631-2.8921 6.0864-0.59264 10.573 1.09 2.127 2.8265 2.3019 2.8265 0.2848zm19.829-1.6322c1.8761-3.0041 1.0312-3.1702-1.6985-0.33406-1.5179 1.5771-1.8608 2.4314-0.97577 2.4314 0.75043 0 1.9538-0.94382 2.6742-2.0974zm-85.51-1.2671c1.4734-2.2487 1.3567-2.6207-2.385-7.6004-2.3662-3.1491-3.9342-6.3371-3.9342-7.9987 0-2.0106-1.31-3.9881-4.812-7.2638-2.6466-2.4756-5.7966-5.028-7-5.672-1.4801-0.79211-2.188-2.1112-2.188-4.0768 0-1.5982-0.42192-3.1666-0.9376-3.4853-1.1373-0.70289-1.1735 7.3275-0.04273 9.4743 0.43828 0.83207 2.4124 3.2258 4.387 5.3195 1.9746 2.0937 3.8236 5.0129 4.1089 6.4871 0.89738 4.6366 3.6147 12.589 5.1016 14.931 1.888 2.9729 5.7164 2.916 7.702-0.11444zm-18.578-3.7318c-1.7824-2.8029-4.0233-6.2904-4.9797-7.75-0.95644-1.4596-2.0359-3.2653-2.3989-4.0128s-1.7755-2.5475-3.139-4l-2.4792-2.6409 0.74628 2.5c0.41046 1.375 1.3681 3.2104 2.128 4.0787 0.75994 0.86831 1.3817 2.3659 1.3817 3.3281 0 1.7142 9.7829 13.524 11.241 13.57 0.40742 0.01279-0.71758-2.2701-2.5-5.073zm36.584-3.1538c0.70134-2.9117-0.6221-9.4348-2.6882-13.25-0.89355-1.65-1.6332-3.9-1.6437-5-0.03-3.1514-3.6615-13.945-6.4621-19.207l-2.5514-4.7935 0.63352 6c0.34845 3.3 0.99088 6.4514 1.4276 7.003 0.43675 0.55167 0.67744 2.5767 0.53487 4.5-0.25534 3.4448 0.72202 7.9364 2.4205 11.124 0.4768 0.89479 1.1724 3.3698 1.5457 5.5 0.64751 3.6949 4.2435 10.352 5.5997 10.366 0.35288 0.0038 0.88548-1.0057 1.1836-2.2432zm19.973-4.0847c0.2817-0.73409 0.0177-3.1873-0.58666-5.4515-0.96483-3.6147-0.81099-4.7314 1.2615-9.1562 1.2982-2.7717 2.3603-6.289 2.3603-7.8164 0-4.0448-1.2573-8.4062-2.2471-7.7945-1.8377 1.1357-4.955 29.351-3.4131 30.893 1.0405 1.0405 2.0683 0.77639 2.625-0.67452zm-60.298-28.665c0-0.55-0.47656-1-1.059-1s-0.7809 0.45-0.44098 1 0.81648 1 1.059 1 0.44098-0.45 0.44098-1zm107.67 222.33c-0.36667-0.36666-0.65299-1.3792-0.63626-2.25 0.025-1.3003 0.22011-1.2571 1.0917 0.24167 1.0768 1.8517 0.76461 3.2284-0.4554 2.0083zm-118.67-24.333c0-0.55 0.45-1 1-1s1 0.45 1 1-0.45 1-1 1-1-0.45-1-1zm-34.396-96.832c-0.32004-0.51783 0.11504-1.5199 0.96684-2.2268 1.6968-1.4082 6.736-0.26332 6.8608 1.5587 0.08867 1.295-7.0629 1.9054-7.8276 0.66813zm130.05-86.918c0.37858-1.5125 1.2155-4.775 1.8597-7.25l1.1714-4.5 0.70774 3.1087c0.46498 2.0424 0.13939 4.5292-0.94927 7.25-1.8573 4.6418-3.8523 5.6368-2.7896 1.3913z"/>
</svg>

