<?xml version="1.0" encoding="UTF-8" standalone="no"?>
<svg
   xmlns:dc="http://purl.org/dc/elements/1.1/"
   xmlns:cc="http://creativecommons.org/ns#"
   xmlns:rdf="http://www.w3.org/1999/02/22-rdf-syntax-ns#"
   xmlns:svg="http://www.w3.org/2000/svg"
   xmlns="http://www.w3.org/2000/svg"
   xmlns:sodipodi="http://sodipodi.sourceforge.net/DTD/sodipodi-0.dtd"
   xmlns:inkscape="http://www.inkscape.org/namespaces/inkscape"
   fill="#ffffff"
   width="221.634px"
   height="81.425px"
   viewBox="0 0 221.634 81.425"
   id="svg2"
   version="1.1"
   inkscape:version="0.91 r13725"
   sodipodi:docname="logo.svg">
  <metadata
     id="metadata20">
    <rdf:RDF>
      <cc:Work
         rdf:about="">
        <dc:format>image/svg+xml</dc:format>
        <dc:type
           rdf:resource="http://purl.org/dc/dcmitype/StillImage" />
      </cc:Work>
    </rdf:RDF>
  </metadata>
  <defs
     id="defs18" />
  <sodipodi:namedview
     pagecolor="#ffffff"
     bordercolor="#666666"
     borderopacity="1"
     objecttolerance="10"
     gridtolerance="10"
     guidetolerance="10"
     inkscape:pageopacity="0"
     inkscape:pageshadow="2"
     inkscape:window-width="1920"
     inkscape:window-height="1004"
     id="namedview16"
     showgrid="false"
     inkscape:zoom="3.5554111"
     inkscape:cx="211.72733"
     inkscape:cy="70.125344"
     inkscape:window-x="0"
     inkscape:window-y="24"
     inkscape:window-maximized="1"
     inkscape:current-layer="svg2" />
  <path
     d="M58.604,21.967c-0.252,0-0.503-0.061-0.724-0.188c-6.027-3.107-11.239-4.427-17.487-4.427 c-6.216,0-12.117,1.476-17.485,4.427c-0.753,0.407-1.695,0.127-2.135-0.629c-0.408-0.754-0.125-1.726,0.628-2.134 c5.839-3.171,12.243-4.804,18.992-4.804c6.689,0,12.526,1.475,18.931,4.771c0.785,0.407,1.067,1.351,0.659,2.104 C59.701,21.654,59.168,21.967,58.604,21.967z M13.679,38.449c-0.314,0-0.628-0.095-0.91-0.281c-0.722-0.504-0.878-1.475-0.377-2.197 c3.109-4.395,7.064-7.848,11.773-10.266c9.857-5.086,22.478-5.116,32.367-0.032c4.709,2.417,8.664,5.839,11.772,10.203 c0.503,0.69,0.344,1.694-0.38,2.198c-0.721,0.5-1.692,0.345-2.195-0.377c-2.826-3.957-6.404-7.063-10.644-9.229 c-9.008-4.615-20.53-4.615-29.508,0.03c-4.269,2.197-7.849,5.338-10.674,9.291C14.652,38.229,14.182,38.449,13.679,38.449z M33.3,76.341c-0.408,0-0.815-0.156-1.1-0.47c-2.731-2.733-4.206-4.49-6.309-8.289c-2.166-3.862-3.298-8.571-3.298-13.624 c0-9.324,7.975-16.921,17.77-16.921c9.795,0,17.769,7.597,17.769,16.921c0,0.877-0.692,1.569-1.569,1.569 c-0.88,0-1.57-0.692-1.57-1.569c0-7.597-6.561-13.782-14.629-13.782c-8.067,0-14.63,6.186-14.63,13.782 c0,4.519,1.006,8.694,2.92,12.085c2.01,3.611,3.391,5.15,5.809,7.597c0.596,0.629,0.596,1.601,0,2.231 C34.115,76.185,33.707,76.341,33.3,76.341z M55.808,70.531c-3.733,0-7.032-0.938-9.73-2.793c-4.678-3.17-7.473-8.316-7.473-13.779 c0-0.881,0.691-1.569,1.57-1.569c0.88,0,1.569,0.688,1.569,1.569c0,4.427,2.261,8.603,6.09,11.175 c2.229,1.508,4.835,2.229,7.974,2.229c0.755,0,2.012-0.093,3.266-0.312c0.849-0.156,1.664,0.407,1.821,1.287 c0.156,0.847-0.408,1.662-1.288,1.82C57.819,70.501,56.249,70.531,55.808,70.531z M49.499,77c-0.126,0-0.282-0.03-0.411-0.062 c-4.991-1.383-8.255-3.234-11.676-6.594C33.017,65.98,30.6,60.174,30.6,53.957c0-5.086,4.331-9.23,9.669-9.23 c5.336,0,9.668,4.145,9.668,9.23c0,3.359,2.921,6.089,6.529,6.089c3.608,0,6.53-2.729,6.53-6.089 c0-11.836-10.203-21.441-22.76-21.441c-8.915,0-17.078,4.96-20.751,12.65c-1.225,2.543-1.853,5.525-1.853,8.791 c0,2.445,0.221,6.31,2.104,11.33c0.312,0.818-0.096,1.729-0.91,2.012c-0.817,0.312-1.729-0.125-2.01-0.91 c-1.539-4.111-2.292-8.195-2.292-12.432c0-3.769,0.722-7.189,2.136-10.172c4.174-8.76,13.436-14.441,23.575-14.441 c14.283,0,25.899,11.02,25.899,24.583c0,5.083-4.332,9.228-9.67,9.228c-5.337,0-9.669-4.145-9.669-9.228 c0-3.36-2.919-6.092-6.528-6.092c-3.611,0-6.53,2.731-6.53,6.092c0,5.364,2.071,10.39,5.869,14.157 c2.983,2.949,5.841,4.583,10.265,5.807c0.849,0.221,1.321,1.098,1.101,1.916C50.817,76.529,50.158,77,49.499,77z"
     id="path4"
     style="fill:#ffffff" />
  <path
     inkscape:connector-curvature="0"
     id="path4560"
     style="font-style:normal;font-variant:normal;font-weight:normal;font-stretch:normal;font-size:22.5px;line-height:125%;font-family:Vodafone;-inkscape-font-specification:Vodafone;letter-spacing:0px;word-spacing:0px;fill:#ffffff;fill-opacity:1;stroke:none;stroke-width:1px;stroke-linecap:butt;stroke-linejoin:miter;stroke-opacity:1"
     d="m 81.451953,60.570314 q -2.434916,0 -4.362559,-1.089465 -1.876915,-1.146806 -3.195828,-3.096375 -1.268186,-1.949569 -1.97837,-4.587222 -0.659457,-2.694992 -0.659457,-5.791367 0,-4.18584 1.623278,-7.683596 1.623278,-3.497757 4.108922,-4.931264 2.485644,-1.490847 5.275653,-1.490847 1.775461,0 2.992919,0.344042 1.268186,0.286701 2.130552,0.688083 l 0,-11.238693 3.703103,0 0,38.245961 -3.398738,0 -0.304365,-2.236271 q -1.268185,1.548188 -2.739281,2.236271 -1.420368,0.630743 -3.195829,0.630743 z m 0.60873,-3.555097 q 1.471095,0 2.840736,-0.688083 1.369641,-0.745424 2.485644,-2.408292 l 0,-17.144741 q -0.355092,-0.172021 -0.963821,-0.401382 -0.608729,-0.229361 -1.318913,-0.401382 -0.659457,-0.229361 -1.268186,-0.344041 -0.608729,-0.172021 -0.963821,-0.172021 -2.840737,0 -4.819107,1.892229 -1.927642,1.834889 -2.536372,4.18584 -0.608729,2.293611 -0.608729,4.701902 0,3.440416 1.014549,6.25009 1.065276,2.637652 2.688554,3.612437 1.623278,0.917444 3.449466,0.917444 z" />
  <path
     inkscape:connector-curvature="0"
     id="path4562"
     style="font-style:normal;font-variant:normal;font-weight:normal;font-stretch:normal;font-size:22.5px;line-height:125%;font-family:Vodafone;-inkscape-font-specification:Vodafone;letter-spacing:0px;word-spacing:0px;fill:#ffffff;fill-opacity:1;stroke:none;stroke-width:1px;stroke-linecap:butt;stroke-linejoin:miter;stroke-opacity:1"
     d="m 94.491272,71.006243 -0.40582,-3.899138 q 3.043646,0 5.072744,-0.860104 2.079824,-0.860104 3.449464,-3.039035 0.25364,-0.458722 0.50728,-1.032125 0.25363,-0.516062 0.60873,-1.261486 l -9.029489,-28.326094 4.15965,0 7.254019,23.796213 q 1.97837,-5.045944 3.70311,-11.124013 1.77546,-6.078068 3.24655,-12.6722 l 3.95674,0 q -1.26818,5.447326 -2.53637,9.919867 -1.26818,4.415201 -2.43492,7.855618 -1.116,3.383076 -2.02909,5.734027 -0.9131,2.350951 -1.42037,3.555096 -0.96382,2.178931 -2.0291,4.18584 -1.01455,2.06425 -2.53637,3.612437 -1.52182,1.548188 -3.80456,2.522972 -2.282733,0.974785 -5.732198,1.032125 z" />
  <path
     inkscape:connector-curvature="0"
     id="path4564"
     style="font-style:normal;font-variant:normal;font-weight:normal;font-stretch:normal;font-size:22.5px;line-height:125%;font-family:Vodafone;-inkscape-font-specification:Vodafone;letter-spacing:0px;word-spacing:0px;fill:#ffffff;fill-opacity:1;stroke:none;stroke-width:1px;stroke-linecap:butt;stroke-linejoin:miter;stroke-opacity:1"
     d="m 127.1225,60.570314 q -1.82619,0 -3.29729,-0.458722 -1.47109,-0.401382 -2.48564,-0.917445 -1.01455,-0.516062 -1.62328,-1.032125 -0.60873,-0.516062 -0.71018,-0.688083 l 1.31891,-3.555097 q 1.116,1.089466 2.79001,2.12159 1.72473,0.974785 4.00747,0.974785 2.33346,0 3.50019,-1.032125 1.21746,-1.032125 1.21746,-3.268395 0,-2.867014 -5.98584,-5.504666 -3.44947,-1.433507 -4.86983,-3.153715 -1.42037,-1.777549 -1.42037,-4.644562 0,-3.325736 2.02909,-5.389986 2.07983,-2.12159 5.47857,-2.12159 2.73928,0 4.61619,0.974785 1.92765,0.917444 3.14511,2.23627 l -1.57256,3.153715 q -1.21745,-1.318826 -2.73928,-2.064249 -1.52182,-0.745424 -3.39873,-0.745424 -2.13056,0 -3.09438,1.146805 -0.91309,1.146806 -0.91309,2.522972 0,2.580313 5.58002,4.931264 3.19582,1.318826 4.86983,3.211055 1.72473,1.834889 1.72473,5.160624 0.0507,2.465632 -0.86236,4.07116 -0.9131,1.548187 -2.23201,2.522971 -1.31891,0.917445 -2.73928,1.261486 -1.42037,0.344042 -2.33346,0.286702 z" />
  <path
     inkscape:connector-curvature="0"
     id="path4566"
     style="font-style:normal;font-variant:normal;font-weight:normal;font-stretch:normal;font-size:22.5px;line-height:125%;font-family:Vodafone;-inkscape-font-specification:Vodafone;letter-spacing:0px;word-spacing:0px;fill:#ffffff;fill-opacity:1;stroke:none;stroke-width:1px;stroke-linecap:butt;stroke-linejoin:miter;stroke-opacity:1"
     d="m 140.14042,59.939571 0,-38.245961 3.7031,0 0,21.043879 2.48564,0 q 1.42037,0 2.53638,-0.802763 1.116,-0.860104 2.18128,-3.555097 l 2.232,-5.791368 4.00747,0 -2.53637,6.30743 q -0.81164,2.00691 -1.67401,3.325736 -0.86236,1.318826 -1.87691,1.777548 1.42037,0.458723 2.28273,1.433507 0.86237,0.917445 1.57255,2.924354 l 4.0582,11.582735 -4.10892,0 -2.73929,-7.626256 q -0.50727,-1.318826 -0.96382,-2.293611 -0.40582,-0.974785 -0.76091,-1.662868 -0.558,-1.032125 -1.52182,-1.490847 -0.96382,-0.458722 -2.07983,-0.458722 l -3.09437,0 0,13.532304 -3.7031,0 z" />
  <path
     inkscape:connector-curvature="0"
     id="path4568"
     style="font-style:normal;font-variant:normal;font-weight:normal;font-stretch:normal;font-size:22.5px;line-height:125%;font-family:Vodafone;-inkscape-font-specification:Vodafone;letter-spacing:0px;word-spacing:0px;fill:#ffffff;fill-opacity:1;stroke:none;stroke-width:1px;stroke-linecap:butt;stroke-linejoin:miter;stroke-opacity:1"
     d="m 171.39961,60.570314 q -4.6162,0 -6.64529,-2.637653 -1.97837,-2.637652 -1.97837,-8.027638 l 0,-17.316762 3.7031,0 0,17.546123 q 0,3.612438 1.36964,5.275305 1.42037,1.605528 4.15965,1.605528 1.77546,0 3.50019,-0.860104 1.77546,-0.917444 2.89147,-2.17893 l 0,-21.387922 3.80455,0 0,27.35131 -3.44946,0 -0.25364,-2.12159 q -1.42037,1.261486 -3.04364,2.006909 -1.62328,0.745424 -4.0582,0.745424 z" />
  <path
     inkscape:connector-curvature="0"
     id="path4570"
     style="font-style:normal;font-variant:normal;font-weight:normal;font-stretch:normal;font-size:22.5px;line-height:125%;font-family:Vodafone;-inkscape-font-specification:Vodafone;letter-spacing:0px;word-spacing:0px;fill:#ffffff;fill-opacity:1;stroke:none;stroke-width:1px;stroke-linecap:butt;stroke-linejoin:miter;stroke-opacity:1"
     d="m 188.88633,59.939571 0,-27.35131 3.34801,0 0.35509,2.752333 q 1.36964,-1.433506 2.84074,-2.408291 1.52182,-1.032125 3.24655,-1.032125 0.40582,0 0.9131,0.114681 0.50727,0.05734 1.16673,0.172021 L 200.3,36.258039 q -0.76091,-0.229361 -1.82619,-0.229361 -1.62328,0 -3.19583,1.089465 -1.52182,1.032125 -2.68855,2.350951 l 0,20.470477 -3.7031,0 z" />
  <path
     inkscape:connector-curvature="0"
     id="path4572"
     style="font-style:normal;font-variant:normal;font-weight:normal;font-stretch:normal;font-size:22.5px;line-height:125%;font-family:Vodafone;-inkscape-font-specification:Vodafone;letter-spacing:0px;word-spacing:0px;fill:#ffffff;fill-opacity:1;stroke:none;stroke-width:1px;stroke-linecap:butt;stroke-linejoin:miter;stroke-opacity:1"
     d="m 210.14904,60.570314 q -1.82619,0 -3.29729,-0.458722 -1.47109,-0.401382 -2.48564,-0.917445 -1.01455,-0.516062 -1.62328,-1.032125 -0.60873,-0.516062 -0.71018,-0.688083 l 1.31891,-3.555097 q 1.116,1.089466 2.79001,2.12159 1.72473,0.974785 4.00747,0.974785 2.33346,0 3.50019,-1.032125 1.21746,-1.032125 1.21746,-3.268395 0,-2.867014 -5.98584,-5.504666 -3.44947,-1.433507 -4.86983,-3.153715 -1.42037,-1.777549 -1.42037,-4.644562 0,-3.325736 2.0291,-5.389986 2.07982,-2.12159 5.47856,-2.12159 2.73928,0 4.6162,0.974785 1.92764,0.917444 3.1451,2.23627 l -1.57255,3.153715 q -1.21746,-1.318826 -2.73929,-2.064249 -1.52182,-0.745424 -3.39873,-0.745424 -2.13056,0 -3.09438,1.146805 -0.91309,1.146806 -0.91309,2.522972 0,2.580313 5.58002,4.931264 3.19583,1.318826 4.86983,3.211055 1.72473,1.834889 1.72473,5.160624 0.0507,2.465632 -0.86236,4.07116 -0.9131,1.548187 -2.23201,2.522971 -1.31891,0.917445 -2.73928,1.261486 -1.42037,0.344042 -2.33346,0.286702 z" />
</svg>
